<svg xmlns="http://www.w3.org/2000/svg" width="260" height="260" viewBox="0 0 260 260" role="img" aria-labelledby="title desc">
  <title id="title">Payment QR placeholder</title>
  <desc id="desc">Replace this placeholder with your real UPI QR image.</desc>
  <rect width="260" height="260" fill="#ffffff"/>
  <rect x="14" y="14" width="232" height="232" rx="12" fill="#fff7ed" stroke="#f97316" stroke-width="4"/>
  <g fill="#111827">
    <rect x="34" y="34" width="54" height="54" rx="4"/>
    <rect x="47" y="47" width="28" height="28" rx="2" fill="#ffffff"/>
    <rect x="172" y="34" width="54" height="54" rx="4"/>
    <rect x="185" y="47" width="28" height="28" rx="2" fill="#ffffff"/>
    <rect x="34" y="172" width="54" height="54" rx="4"/>
    <rect x="47" y="185" width="28" height="28" rx="2" fill="#ffffff"/>
    <rect x="108" y="38" width="18" height="18"/>
    <rect x="134" y="38" width="12" height="12"/>
    <rect x="108" y="64" width="38" height="12"/>
    <rect x="102" y="102" width="14" height="14"/>
    <rect x="126" y="102" width="20" height="20"/>
    <rect x="158" y="102" width="14" height="14"/>
    <rect x="188" y="102" width="28" height="14"/>
    <rect x="102" y="132" width="44" height="14"/>
    <rect x="158" y="132" width="14" height="44"/>
    <rect x="188" y="132" width="14" height="14"/>
    <rect x="214" y="132" width="12" height="38"/>
    <rect x="102" y="158" width="14" height="42"/>
    <rect x="128" y="158" width="18" height="18"/>
    <rect x="184" y="162" width="18" height="18"/>
    <rect x="126" y="194" width="46" height="14"/>
    <rect x="190" y="194" width="36" height="14"/>
    <rect x="102" y="220" width="18" height="18"/>
    <rect x="136" y="220" width="14" height="14"/>
    <rect x="164" y="220" width="20" height="20"/>
    <rect x="208" y="220" width="18" height="18"/>
  </g>
  <rect x="60" y="116" width="140" height="28" rx="14" fill="#ffffff" stroke="#f97316" stroke-width="2"/>
  <text x="130" y="135" text-anchor="middle" font-family="Arial, sans-serif" font-size="13" font-weight="700" fill="#ea580c">ADD YOUR QR</text>
</svg>
